<mxfile host="app.diagrams.net" modified="2024-05-21T02:52:56.651Z" agent="Mozilla/5.0 (Macintosh; Intel Mac OS X 10_15_7) AppleWebKit/537.36 (KHTML, like Gecko) Chrome/124.0.0.0 Safari/537.36" version="24.4.4" etag="_rjeYLLs9E2GgPVCKq_t" type="github">
  <diagram name="第 1 页" id="sg-60o6dPtMrBqtGXqvt">
    <mxGraphModel>
      <root>
        <mxCell id="0" />
        <mxCell id="1" parent="0" />
      </root>
    </mxGraphModel>
  </diagram>
</mxfile>
